G75*
%MOIN*%
%OFA0B0*%
%FSLAX24Y24*%
%IPPOS*%
%LPD*%
%AMOC8*
5,1,8,0,0,1.08239X$1,22.5*
%
%ADD10C,0.0100*%
%ADD11C,0.0000*%
%ADD12C,0.1340*%
%ADD13R,0.0440X0.0440*%
%ADD14R,0.0434X0.0591*%
%ADD15R,0.0540X0.0640*%
%ADD16R,0.2009X0.0434*%
%ADD17R,0.0540X0.1040*%
%ADD18C,0.0054*%
%ADD19R,0.0740X0.0740*%
%ADD20C,0.0740*%
%ADD21R,0.0640X0.0640*%
%ADD22C,0.0640*%
%ADD23R,0.0591X0.0434*%
%ADD24R,0.0512X0.0140*%
%ADD25R,0.0140X0.0512*%
%ADD26R,0.0340X0.0240*%
%ADD27R,0.0788X0.0355*%
%ADD28R,0.0867X0.0355*%
%ADD29R,0.0827X0.0827*%
%ADD30R,0.0788X0.0591*%
%ADD31R,0.0700X0.0700*%
%ADD32C,0.0700*%
%ADD33R,0.0640X0.0540*%
%ADD34R,0.0512X0.0257*%
%ADD35R,0.0440X0.0340*%
%ADD36R,0.0440X0.0240*%
%ADD37C,0.0634*%
%ADD38R,0.0906X0.0276*%
%ADD39C,0.1040*%
%ADD40R,0.1040X0.1040*%
%ADD41R,0.1221X0.0827*%
%ADD42R,0.0926X0.0237*%
%ADD43R,0.1615X0.0867*%
%ADD44R,0.1418X0.0867*%
%ADD45C,0.0434*%
%ADD46R,0.0615X0.0158*%
%ADD47R,0.0497X0.0158*%
%ADD48R,0.0340X0.0440*%
%ADD49R,0.0240X0.0440*%
%ADD50R,0.0276X0.0906*%
%ADD51R,0.2796X0.1142*%
%ADD52R,0.0940X0.0740*%
%ADD53C,0.0594*%
%ADD54C,0.1103*%
%ADD55C,0.0690*%
%ADD56C,0.1300*%
%ADD57C,0.0808*%
%ADD58C,0.0397*%
%ADD59R,0.0138X0.0335*%
%ADD60R,0.0335X0.0138*%
%ADD61R,0.1300X0.1300*%
D10*
X008401Y002140D02*
X008401Y035840D01*
X047771Y035840D01*
X047771Y002140D01*
X008401Y002140D01*
D11*
X009051Y003440D02*
X009053Y003490D01*
X009059Y003540D01*
X009069Y003590D01*
X009082Y003638D01*
X009099Y003686D01*
X009120Y003732D01*
X009144Y003776D01*
X009172Y003818D01*
X009203Y003858D01*
X009237Y003895D01*
X009274Y003930D01*
X009313Y003961D01*
X009354Y003990D01*
X009398Y004015D01*
X009444Y004037D01*
X009491Y004055D01*
X009539Y004069D01*
X009588Y004080D01*
X009638Y004087D01*
X009688Y004090D01*
X009739Y004089D01*
X009789Y004084D01*
X009839Y004075D01*
X009887Y004063D01*
X009935Y004046D01*
X009981Y004026D01*
X010026Y004003D01*
X010069Y003976D01*
X010109Y003946D01*
X010147Y003913D01*
X010182Y003877D01*
X010215Y003838D01*
X010244Y003797D01*
X010270Y003754D01*
X010293Y003709D01*
X010312Y003662D01*
X010327Y003614D01*
X010339Y003565D01*
X010347Y003515D01*
X010351Y003465D01*
X010351Y003415D01*
X010347Y003365D01*
X010339Y003315D01*
X010327Y003266D01*
X010312Y003218D01*
X010293Y003171D01*
X010270Y003126D01*
X010244Y003083D01*
X010215Y003042D01*
X010182Y003003D01*
X010147Y002967D01*
X010109Y002934D01*
X010069Y002904D01*
X010026Y002877D01*
X009981Y002854D01*
X009935Y002834D01*
X009887Y002817D01*
X009839Y002805D01*
X009789Y002796D01*
X009739Y002791D01*
X009688Y002790D01*
X009638Y002793D01*
X009588Y002800D01*
X009539Y002811D01*
X009491Y002825D01*
X009444Y002843D01*
X009398Y002865D01*
X009354Y002890D01*
X009313Y002919D01*
X009274Y002950D01*
X009237Y002985D01*
X009203Y003022D01*
X009172Y003062D01*
X009144Y003104D01*
X009120Y003148D01*
X009099Y003194D01*
X009082Y003242D01*
X009069Y003290D01*
X009059Y003340D01*
X009053Y003390D01*
X009051Y003440D01*
X009854Y012384D02*
X009856Y012411D01*
X009862Y012438D01*
X009871Y012464D01*
X009884Y012488D01*
X009900Y012511D01*
X009919Y012530D01*
X009941Y012547D01*
X009965Y012561D01*
X009990Y012571D01*
X010017Y012578D01*
X010044Y012581D01*
X010072Y012580D01*
X010099Y012575D01*
X010125Y012567D01*
X010149Y012555D01*
X010172Y012539D01*
X010193Y012521D01*
X010210Y012500D01*
X010225Y012476D01*
X010236Y012451D01*
X010244Y012425D01*
X010248Y012398D01*
X010248Y012370D01*
X010244Y012343D01*
X010236Y012317D01*
X010225Y012292D01*
X010210Y012268D01*
X010193Y012247D01*
X010172Y012229D01*
X010150Y012213D01*
X010125Y012201D01*
X010099Y012193D01*
X010072Y012188D01*
X010044Y012187D01*
X010017Y012190D01*
X009990Y012197D01*
X009965Y012207D01*
X009941Y012221D01*
X009919Y012238D01*
X009900Y012257D01*
X009884Y012280D01*
X009871Y012304D01*
X009862Y012330D01*
X009856Y012357D01*
X009854Y012384D01*
X009854Y014116D02*
X009856Y014143D01*
X009862Y014170D01*
X009871Y014196D01*
X009884Y014220D01*
X009900Y014243D01*
X009919Y014262D01*
X009941Y014279D01*
X009965Y014293D01*
X009990Y014303D01*
X010017Y014310D01*
X010044Y014313D01*
X010072Y014312D01*
X010099Y014307D01*
X010125Y014299D01*
X010149Y014287D01*
X010172Y014271D01*
X010193Y014253D01*
X010210Y014232D01*
X010225Y014208D01*
X010236Y014183D01*
X010244Y014157D01*
X010248Y014130D01*
X010248Y014102D01*
X010244Y014075D01*
X010236Y014049D01*
X010225Y014024D01*
X010210Y014000D01*
X010193Y013979D01*
X010172Y013961D01*
X010150Y013945D01*
X010125Y013933D01*
X010099Y013925D01*
X010072Y013920D01*
X010044Y013919D01*
X010017Y013922D01*
X009990Y013929D01*
X009965Y013939D01*
X009941Y013953D01*
X009919Y013970D01*
X009900Y013989D01*
X009884Y014012D01*
X009871Y014036D01*
X009862Y014062D01*
X009856Y014089D01*
X009854Y014116D01*
X009854Y017264D02*
X009856Y017291D01*
X009862Y017318D01*
X009871Y017344D01*
X009884Y017368D01*
X009900Y017391D01*
X009919Y017410D01*
X009941Y017427D01*
X009965Y017441D01*
X009990Y017451D01*
X010017Y017458D01*
X010044Y017461D01*
X010072Y017460D01*
X010099Y017455D01*
X010125Y017447D01*
X010149Y017435D01*
X010172Y017419D01*
X010193Y017401D01*
X010210Y017380D01*
X010225Y017356D01*
X010236Y017331D01*
X010244Y017305D01*
X010248Y017278D01*
X010248Y017250D01*
X010244Y017223D01*
X010236Y017197D01*
X010225Y017172D01*
X010210Y017148D01*
X010193Y017127D01*
X010172Y017109D01*
X010150Y017093D01*
X010125Y017081D01*
X010099Y017073D01*
X010072Y017068D01*
X010044Y017067D01*
X010017Y017070D01*
X009990Y017077D01*
X009965Y017087D01*
X009941Y017101D01*
X009919Y017118D01*
X009900Y017137D01*
X009884Y017160D01*
X009871Y017184D01*
X009862Y017210D01*
X009856Y017237D01*
X009854Y017264D01*
X009854Y018996D02*
X009856Y019023D01*
X009862Y019050D01*
X009871Y019076D01*
X009884Y019100D01*
X009900Y019123D01*
X009919Y019142D01*
X009941Y019159D01*
X009965Y019173D01*
X009990Y019183D01*
X010017Y019190D01*
X010044Y019193D01*
X010072Y019192D01*
X010099Y019187D01*
X010125Y019179D01*
X010149Y019167D01*
X010172Y019151D01*
X010193Y019133D01*
X010210Y019112D01*
X010225Y019088D01*
X010236Y019063D01*
X010244Y019037D01*
X010248Y019010D01*
X010248Y018982D01*
X010244Y018955D01*
X010236Y018929D01*
X010225Y018904D01*
X010210Y018880D01*
X010193Y018859D01*
X010172Y018841D01*
X010150Y018825D01*
X010125Y018813D01*
X010099Y018805D01*
X010072Y018800D01*
X010044Y018799D01*
X010017Y018802D01*
X009990Y018809D01*
X009965Y018819D01*
X009941Y018833D01*
X009919Y018850D01*
X009900Y018869D01*
X009884Y018892D01*
X009871Y018916D01*
X009862Y018942D01*
X009856Y018969D01*
X009854Y018996D01*
X011530Y021584D02*
X011532Y021634D01*
X011538Y021684D01*
X011548Y021733D01*
X011562Y021781D01*
X011579Y021828D01*
X011600Y021873D01*
X011625Y021917D01*
X011653Y021958D01*
X011685Y021997D01*
X011719Y022034D01*
X011756Y022068D01*
X011796Y022098D01*
X011838Y022125D01*
X011882Y022149D01*
X011928Y022170D01*
X011975Y022186D01*
X012023Y022199D01*
X012073Y022208D01*
X012122Y022213D01*
X012173Y022214D01*
X012223Y022211D01*
X012272Y022204D01*
X012321Y022193D01*
X012369Y022178D01*
X012415Y022160D01*
X012460Y022138D01*
X012503Y022112D01*
X012544Y022083D01*
X012583Y022051D01*
X012619Y022016D01*
X012651Y021978D01*
X012681Y021938D01*
X012708Y021895D01*
X012731Y021851D01*
X012750Y021805D01*
X012766Y021757D01*
X012778Y021708D01*
X012786Y021659D01*
X012790Y021609D01*
X012790Y021559D01*
X012786Y021509D01*
X012778Y021460D01*
X012766Y021411D01*
X012750Y021363D01*
X012731Y021317D01*
X012708Y021273D01*
X012681Y021230D01*
X012651Y021190D01*
X012619Y021152D01*
X012583Y021117D01*
X012544Y021085D01*
X012503Y021056D01*
X012460Y021030D01*
X012415Y021008D01*
X012369Y020990D01*
X012321Y020975D01*
X012272Y020964D01*
X012223Y020957D01*
X012173Y020954D01*
X012122Y020955D01*
X012073Y020960D01*
X012023Y020969D01*
X011975Y020982D01*
X011928Y020998D01*
X011882Y021019D01*
X011838Y021043D01*
X011796Y021070D01*
X011756Y021100D01*
X011719Y021134D01*
X011685Y021171D01*
X011653Y021210D01*
X011625Y021251D01*
X011600Y021295D01*
X011579Y021340D01*
X011562Y021387D01*
X011548Y021435D01*
X011538Y021484D01*
X011532Y021534D01*
X011530Y021584D01*
X011530Y026084D02*
X011532Y026134D01*
X011538Y026184D01*
X011548Y026233D01*
X011562Y026281D01*
X011579Y026328D01*
X011600Y026373D01*
X011625Y026417D01*
X011653Y026458D01*
X011685Y026497D01*
X011719Y026534D01*
X011756Y026568D01*
X011796Y026598D01*
X011838Y026625D01*
X011882Y026649D01*
X011928Y026670D01*
X011975Y026686D01*
X012023Y026699D01*
X012073Y026708D01*
X012122Y026713D01*
X012173Y026714D01*
X012223Y026711D01*
X012272Y026704D01*
X012321Y026693D01*
X012369Y026678D01*
X012415Y026660D01*
X012460Y026638D01*
X012503Y026612D01*
X012544Y026583D01*
X012583Y026551D01*
X012619Y026516D01*
X012651Y026478D01*
X012681Y026438D01*
X012708Y026395D01*
X012731Y026351D01*
X012750Y026305D01*
X012766Y026257D01*
X012778Y026208D01*
X012786Y026159D01*
X012790Y026109D01*
X012790Y026059D01*
X012786Y026009D01*
X012778Y025960D01*
X012766Y025911D01*
X012750Y025863D01*
X012731Y025817D01*
X012708Y025773D01*
X012681Y025730D01*
X012651Y025690D01*
X012619Y025652D01*
X012583Y025617D01*
X012544Y025585D01*
X012503Y025556D01*
X012460Y025530D01*
X012415Y025508D01*
X012369Y025490D01*
X012321Y025475D01*
X012272Y025464D01*
X012223Y025457D01*
X012173Y025454D01*
X012122Y025455D01*
X012073Y025460D01*
X012023Y025469D01*
X011975Y025482D01*
X011928Y025498D01*
X011882Y025519D01*
X011838Y025543D01*
X011796Y025570D01*
X011756Y025600D01*
X011719Y025634D01*
X011685Y025671D01*
X011653Y025710D01*
X011625Y025751D01*
X011600Y025795D01*
X011579Y025840D01*
X011562Y025887D01*
X011548Y025935D01*
X011538Y025984D01*
X011532Y026034D01*
X011530Y026084D01*
X009051Y034540D02*
X009053Y034590D01*
X009059Y034640D01*
X009069Y034690D01*
X009082Y034738D01*
X009099Y034786D01*
X009120Y034832D01*
X009144Y034876D01*
X009172Y034918D01*
X009203Y034958D01*
X009237Y034995D01*
X009274Y035030D01*
X009313Y035061D01*
X009354Y035090D01*
X009398Y035115D01*
X009444Y035137D01*
X009491Y035155D01*
X009539Y035169D01*
X009588Y035180D01*
X009638Y035187D01*
X009688Y035190D01*
X009739Y035189D01*
X009789Y035184D01*
X009839Y035175D01*
X009887Y035163D01*
X009935Y035146D01*
X009981Y035126D01*
X010026Y035103D01*
X010069Y035076D01*
X010109Y035046D01*
X010147Y035013D01*
X010182Y034977D01*
X010215Y034938D01*
X010244Y034897D01*
X010270Y034854D01*
X010293Y034809D01*
X010312Y034762D01*
X010327Y034714D01*
X010339Y034665D01*
X010347Y034615D01*
X010351Y034565D01*
X010351Y034515D01*
X010347Y034465D01*
X010339Y034415D01*
X010327Y034366D01*
X010312Y034318D01*
X010293Y034271D01*
X010270Y034226D01*
X010244Y034183D01*
X010215Y034142D01*
X010182Y034103D01*
X010147Y034067D01*
X010109Y034034D01*
X010069Y034004D01*
X010026Y033977D01*
X009981Y033954D01*
X009935Y033934D01*
X009887Y033917D01*
X009839Y033905D01*
X009789Y033896D01*
X009739Y033891D01*
X009688Y033890D01*
X009638Y033893D01*
X009588Y033900D01*
X009539Y033911D01*
X009491Y033925D01*
X009444Y033943D01*
X009398Y033965D01*
X009354Y033990D01*
X009313Y034019D01*
X009274Y034050D01*
X009237Y034085D01*
X009203Y034122D01*
X009172Y034162D01*
X009144Y034204D01*
X009120Y034248D01*
X009099Y034294D01*
X009082Y034342D01*
X009069Y034390D01*
X009059Y034440D01*
X009053Y034490D01*
X009051Y034540D01*
X045821Y034540D02*
X045823Y034590D01*
X045829Y034640D01*
X045839Y034690D01*
X045852Y034738D01*
X045869Y034786D01*
X045890Y034832D01*
X045914Y034876D01*
X045942Y034918D01*
X045973Y034958D01*
X046007Y034995D01*
X046044Y035030D01*
X046083Y035061D01*
X046124Y035090D01*
X046168Y035115D01*
X046214Y035137D01*
X046261Y035155D01*
X046309Y035169D01*
X046358Y035180D01*
X046408Y035187D01*
X046458Y035190D01*
X046509Y035189D01*
X046559Y035184D01*
X046609Y035175D01*
X046657Y035163D01*
X046705Y035146D01*
X046751Y035126D01*
X046796Y035103D01*
X046839Y035076D01*
X046879Y035046D01*
X046917Y035013D01*
X046952Y034977D01*
X046985Y034938D01*
X047014Y034897D01*
X047040Y034854D01*
X047063Y034809D01*
X047082Y034762D01*
X047097Y034714D01*
X047109Y034665D01*
X047117Y034615D01*
X047121Y034565D01*
X047121Y034515D01*
X047117Y034465D01*
X047109Y034415D01*
X047097Y034366D01*
X047082Y034318D01*
X047063Y034271D01*
X047040Y034226D01*
X047014Y034183D01*
X046985Y034142D01*
X046952Y034103D01*
X046917Y034067D01*
X046879Y034034D01*
X046839Y034004D01*
X046796Y033977D01*
X046751Y033954D01*
X046705Y033934D01*
X046657Y033917D01*
X046609Y033905D01*
X046559Y033896D01*
X046509Y033891D01*
X046458Y033890D01*
X046408Y033893D01*
X046358Y033900D01*
X046309Y033911D01*
X046261Y033925D01*
X046214Y033943D01*
X046168Y033965D01*
X046124Y033990D01*
X046083Y034019D01*
X046044Y034050D01*
X046007Y034085D01*
X045973Y034122D01*
X045942Y034162D01*
X045914Y034204D01*
X045890Y034248D01*
X045869Y034294D01*
X045852Y034342D01*
X045839Y034390D01*
X045829Y034440D01*
X045823Y034490D01*
X045821Y034540D01*
X045821Y003440D02*
X045823Y003490D01*
X045829Y003540D01*
X045839Y003590D01*
X045852Y003638D01*
X045869Y003686D01*
X045890Y003732D01*
X045914Y003776D01*
X045942Y003818D01*
X045973Y003858D01*
X046007Y003895D01*
X046044Y003930D01*
X046083Y003961D01*
X046124Y003990D01*
X046168Y004015D01*
X046214Y004037D01*
X046261Y004055D01*
X046309Y004069D01*
X046358Y004080D01*
X046408Y004087D01*
X046458Y004090D01*
X046509Y004089D01*
X046559Y004084D01*
X046609Y004075D01*
X046657Y004063D01*
X046705Y004046D01*
X046751Y004026D01*
X046796Y004003D01*
X046839Y003976D01*
X046879Y003946D01*
X046917Y003913D01*
X046952Y003877D01*
X046985Y003838D01*
X047014Y003797D01*
X047040Y003754D01*
X047063Y003709D01*
X047082Y003662D01*
X047097Y003614D01*
X047109Y003565D01*
X047117Y003515D01*
X047121Y003465D01*
X047121Y003415D01*
X047117Y003365D01*
X047109Y003315D01*
X047097Y003266D01*
X047082Y003218D01*
X047063Y003171D01*
X047040Y003126D01*
X047014Y003083D01*
X046985Y003042D01*
X046952Y003003D01*
X046917Y002967D01*
X046879Y002934D01*
X046839Y002904D01*
X046796Y002877D01*
X046751Y002854D01*
X046705Y002834D01*
X046657Y002817D01*
X046609Y002805D01*
X046559Y002796D01*
X046509Y002791D01*
X046458Y002790D01*
X046408Y002793D01*
X046358Y002800D01*
X046309Y002811D01*
X046261Y002825D01*
X046214Y002843D01*
X046168Y002865D01*
X046124Y002890D01*
X046083Y002919D01*
X046044Y002950D01*
X046007Y002985D01*
X045973Y003022D01*
X045942Y003062D01*
X045914Y003104D01*
X045890Y003148D01*
X045869Y003194D01*
X045852Y003242D01*
X045839Y003290D01*
X045829Y003340D01*
X045823Y003390D01*
X045821Y003440D01*
D12*
X046471Y003440D03*
X009701Y003440D03*
X009701Y034540D03*
X046471Y034540D03*
D13*
X033151Y031830D03*
X033151Y031130D03*
X033881Y024930D03*
X033881Y024230D03*
X035521Y024230D03*
X035521Y024930D03*
X038221Y024420D03*
X038221Y023820D03*
X038921Y023820D03*
X038921Y024420D03*
X041421Y021680D03*
X041421Y021080D03*
X042121Y021080D03*
X042121Y021680D03*
X039761Y019830D03*
X039761Y019130D03*
X039761Y017470D03*
X039761Y016770D03*
X042591Y014540D03*
X042591Y013940D03*
X043291Y013940D03*
X043291Y014540D03*
X043291Y013340D03*
X043291Y012740D03*
X042591Y012740D03*
X042591Y013340D03*
X040211Y013070D03*
X039611Y013070D03*
X039011Y013070D03*
X038411Y013070D03*
X037811Y013070D03*
X037811Y013770D03*
X038411Y013770D03*
X039011Y013770D03*
X039611Y013770D03*
X040211Y013770D03*
X042321Y010950D03*
X042321Y010250D03*
X042161Y006990D03*
X042161Y006290D03*
X034751Y006150D03*
X034151Y006150D03*
X033551Y006150D03*
X032951Y006150D03*
X032951Y006850D03*
X033551Y006850D03*
X034151Y006850D03*
X034751Y006850D03*
X033681Y013060D03*
X032981Y013060D03*
X031361Y013480D03*
X030661Y013480D03*
X029051Y014020D03*
X028351Y014020D03*
X028351Y014720D03*
X028351Y015310D03*
X029051Y015310D03*
X029051Y014720D03*
X029051Y015910D03*
X028351Y015910D03*
X028351Y016660D03*
X029051Y016660D03*
X026961Y016790D03*
X026261Y016790D03*
X026261Y017390D03*
X026961Y017390D03*
X026781Y019950D03*
X026181Y019950D03*
X026121Y020550D03*
X026821Y020550D03*
X027481Y019950D03*
X028081Y019950D03*
X028781Y019950D03*
X028521Y021050D03*
X028521Y021750D03*
X026821Y022210D03*
X026121Y022210D03*
X025481Y019950D03*
X020891Y018940D03*
X020191Y018940D03*
X019901Y020040D03*
X020601Y020040D03*
X018651Y019990D03*
X018651Y020590D03*
X017951Y020590D03*
X017951Y019990D03*
X017901Y021240D03*
X017201Y021240D03*
X017201Y022640D03*
X017201Y023240D03*
X017201Y023940D03*
X017201Y024640D03*
X017201Y025340D03*
X017901Y025340D03*
X017901Y024640D03*
X017901Y023940D03*
X017901Y023240D03*
X017901Y022640D03*
X019201Y023890D03*
X019801Y023890D03*
X019801Y024590D03*
X019201Y024590D03*
X020601Y024290D03*
X021201Y024290D03*
X021201Y024990D03*
X020601Y024990D03*
X023001Y026340D03*
X023001Y027040D03*
X022251Y029290D03*
X021551Y029290D03*
X020851Y029440D03*
X020151Y029440D03*
X020151Y030040D03*
X020851Y030040D03*
X021551Y029990D03*
X021551Y030640D03*
X022251Y030640D03*
X022251Y029990D03*
X018701Y030130D03*
X018101Y030130D03*
X017501Y030130D03*
X017501Y029430D03*
X018101Y029430D03*
X018701Y029430D03*
X018601Y028540D03*
X018001Y028540D03*
X017351Y028340D03*
X017351Y027740D03*
X018001Y027840D03*
X018601Y027840D03*
X017901Y026090D03*
X017201Y026090D03*
X016651Y027740D03*
X016051Y027740D03*
X015351Y027740D03*
X016651Y028340D03*
X016611Y031340D03*
X015911Y031340D03*
X015911Y031940D03*
X016611Y031940D03*
X012551Y033690D03*
X011851Y033690D03*
X011251Y033690D03*
X010551Y033690D03*
X030151Y024930D03*
X030751Y024930D03*
X031351Y024930D03*
X031951Y024930D03*
X031951Y024230D03*
X031351Y024230D03*
X030751Y024230D03*
X030151Y024230D03*
X021181Y016710D03*
X021181Y016110D03*
X020481Y016110D03*
X020481Y016710D03*
X019321Y016530D03*
X018621Y016530D03*
X018621Y015730D03*
X019321Y015730D03*
X019251Y015030D03*
X018651Y015030D03*
X018651Y014330D03*
X019251Y014330D03*
X018051Y014500D03*
X017351Y014500D03*
X016751Y014500D03*
X016051Y014500D03*
X014551Y014140D03*
X014551Y013540D03*
X014551Y012940D03*
X014551Y012340D03*
X013851Y012340D03*
X013851Y012940D03*
X012991Y012420D03*
X012291Y012420D03*
X013851Y013540D03*
X013851Y014140D03*
X012991Y014140D03*
X012291Y014140D03*
X012291Y014740D03*
X012991Y014740D03*
X016191Y015450D03*
X016891Y015450D03*
X014561Y017560D03*
X014561Y018160D03*
X014561Y018760D03*
X014561Y019360D03*
X013861Y019360D03*
X013861Y018760D03*
X012991Y019020D03*
X012291Y019020D03*
X012291Y019620D03*
X012991Y019620D03*
X013861Y018160D03*
X013861Y017560D03*
X012941Y017300D03*
X012241Y017300D03*
X019591Y013050D03*
X019591Y012350D03*
X018491Y011460D03*
X017791Y011460D03*
X017791Y010850D03*
X017791Y010150D03*
X023431Y008860D03*
X024031Y008860D03*
X024031Y008160D03*
X023431Y008160D03*
X023431Y007560D03*
X023431Y006960D03*
X024031Y006960D03*
X024631Y006960D03*
X024131Y007560D03*
X024031Y006260D03*
X023431Y006260D03*
X024631Y006260D03*
X024261Y011070D03*
X023561Y011070D03*
X012551Y004290D03*
X011851Y004290D03*
X011251Y004290D03*
X010551Y004290D03*
X035841Y013480D03*
X036541Y013480D03*
D14*
X020965Y018253D03*
X020217Y018253D03*
X020591Y017387D03*
D15*
X026861Y014120D03*
X027661Y014120D03*
X018001Y021940D03*
X017201Y021940D03*
X012961Y016220D03*
X012161Y016220D03*
X012161Y011340D03*
X012961Y011340D03*
X015861Y029040D03*
X016661Y029040D03*
D16*
X025391Y018700D03*
X028591Y018700D03*
D17*
X024661Y021400D03*
D18*
X028104Y021143D02*
X028104Y020657D01*
X027418Y020657D01*
X027418Y021143D01*
X028104Y021143D01*
X028104Y020710D02*
X027418Y020710D01*
X027418Y020763D02*
X028104Y020763D01*
X028104Y020816D02*
X027418Y020816D01*
X027418Y020869D02*
X028104Y020869D01*
X028104Y020922D02*
X027418Y020922D01*
X027418Y020975D02*
X028104Y020975D01*
X028104Y021028D02*
X027418Y021028D01*
X027418Y021081D02*
X028104Y021081D01*
X028104Y021134D02*
X027418Y021134D01*
X028104Y021657D02*
X028104Y022143D01*
X028104Y021657D02*
X027418Y021657D01*
X027418Y022143D01*
X028104Y022143D01*
X028104Y021710D02*
X027418Y021710D01*
X027418Y021763D02*
X028104Y021763D01*
X028104Y021816D02*
X027418Y021816D01*
X027418Y021869D02*
X028104Y021869D01*
X028104Y021922D02*
X027418Y021922D01*
X027418Y021975D02*
X028104Y021975D01*
X028104Y022028D02*
X027418Y022028D01*
X027418Y022081D02*
X028104Y022081D01*
X028104Y022134D02*
X027418Y022134D01*
D19*
X032151Y027490D03*
X041151Y027490D03*
X044151Y017640D03*
X044151Y015640D03*
X036151Y010490D03*
X043191Y007680D03*
X043191Y006680D03*
X046191Y008680D03*
X029151Y010490D03*
X009551Y010290D03*
D20*
X009551Y009290D03*
X030151Y010490D03*
X031151Y010490D03*
X032151Y010490D03*
X033151Y010490D03*
X034151Y010490D03*
X037151Y010490D03*
X038151Y010490D03*
X039151Y010490D03*
X040151Y010490D03*
X041151Y010490D03*
X043191Y008680D03*
X044191Y008680D03*
X044191Y007680D03*
X045191Y007680D03*
X045191Y008680D03*
X045191Y006680D03*
X044191Y006680D03*
X044151Y011640D03*
X045151Y011640D03*
X045151Y012640D03*
X044151Y012640D03*
X044151Y013640D03*
X045151Y013640D03*
X045151Y014640D03*
X044151Y014640D03*
X045151Y015640D03*
X040151Y027490D03*
X039151Y027490D03*
X038151Y027490D03*
X037151Y027490D03*
X036151Y027490D03*
X035151Y027490D03*
X034151Y027490D03*
X031151Y027490D03*
X030151Y027490D03*
X029151Y027490D03*
X028151Y027490D03*
X027151Y027490D03*
X026151Y027490D03*
X025151Y027490D03*
D21*
X044151Y028640D03*
X026061Y010840D03*
X016661Y010730D03*
X015071Y007500D03*
X011321Y009290D03*
D22*
X011321Y010290D03*
X012321Y010290D03*
X013321Y010290D03*
X013321Y009290D03*
X012321Y009290D03*
X014321Y009290D03*
X014321Y010290D03*
X015661Y010730D03*
X014071Y007500D03*
X026061Y011840D03*
X044151Y019640D03*
X044151Y020640D03*
X045151Y020640D03*
X045151Y019640D03*
X045151Y021640D03*
X044151Y021640D03*
X044151Y022640D03*
X044151Y023640D03*
X045151Y023640D03*
X045151Y022640D03*
X045151Y024640D03*
X044151Y024640D03*
X044151Y025640D03*
X045151Y025640D03*
X045151Y026640D03*
X044151Y026640D03*
X044151Y027640D03*
X045151Y027640D03*
X045151Y028640D03*
D23*
X019464Y017850D03*
X018598Y017476D03*
X018598Y018224D03*
X014784Y016550D03*
X013918Y016176D03*
X013918Y015524D03*
X014784Y015150D03*
X013918Y014776D03*
X013918Y016924D03*
D24*
X030070Y017017D03*
X030070Y017214D03*
X030070Y017410D03*
X030070Y017607D03*
X030070Y017804D03*
X030070Y018001D03*
X030070Y018198D03*
X030070Y018395D03*
X030070Y018592D03*
X030070Y018788D03*
X030070Y018985D03*
X030070Y019182D03*
X030070Y019379D03*
X030070Y019576D03*
X030070Y019773D03*
X030070Y019970D03*
X030070Y020166D03*
X030070Y020363D03*
X030070Y020560D03*
X030070Y020757D03*
X030070Y020954D03*
X030070Y021151D03*
X030070Y021347D03*
X030070Y021544D03*
X030070Y021741D03*
X030070Y021938D03*
X030070Y022135D03*
X030070Y016820D03*
X030070Y016623D03*
X030070Y016426D03*
X030070Y016229D03*
X030070Y016033D03*
X030070Y015836D03*
X030070Y015639D03*
X030070Y015442D03*
X030070Y015245D03*
X038732Y015245D03*
X038732Y015442D03*
X038732Y015639D03*
X038732Y015836D03*
X038732Y016033D03*
X038732Y016229D03*
X038732Y016426D03*
X038732Y016623D03*
X038732Y016820D03*
X038732Y017017D03*
X038732Y017214D03*
X038732Y017410D03*
X038732Y017607D03*
X038732Y017804D03*
X038732Y018001D03*
X038732Y018198D03*
X038732Y018395D03*
X038732Y018592D03*
X038732Y018788D03*
X038732Y018985D03*
X038732Y019182D03*
X038732Y019379D03*
X038732Y019576D03*
X038732Y019773D03*
X038732Y019970D03*
X038732Y020166D03*
X038732Y020363D03*
X038732Y020560D03*
X038732Y020757D03*
X038732Y020954D03*
X038732Y021151D03*
X038732Y021347D03*
X038732Y021544D03*
X038732Y021741D03*
X038732Y021938D03*
X038732Y022135D03*
D25*
X037846Y023021D03*
X037649Y023021D03*
X037452Y023021D03*
X037255Y023021D03*
X037059Y023021D03*
X036862Y023021D03*
X036665Y023021D03*
X036468Y023021D03*
X036271Y023021D03*
X036074Y023021D03*
X035878Y023021D03*
X035681Y023021D03*
X035484Y023021D03*
X035287Y023021D03*
X035090Y023021D03*
X034893Y023021D03*
X034696Y023021D03*
X034500Y023021D03*
X034303Y023021D03*
X034106Y023021D03*
X033909Y023021D03*
X033712Y023021D03*
X033515Y023021D03*
X033318Y023021D03*
X033122Y023021D03*
X032925Y023021D03*
X032728Y023021D03*
X032531Y023021D03*
X032334Y023021D03*
X032137Y023021D03*
X031941Y023021D03*
X031744Y023021D03*
X031547Y023021D03*
X031350Y023021D03*
X031153Y023021D03*
X030956Y023021D03*
X030956Y014359D03*
X031153Y014359D03*
X031350Y014359D03*
X031547Y014359D03*
X031744Y014359D03*
X031941Y014359D03*
X032137Y014359D03*
X032334Y014359D03*
X032531Y014359D03*
X032728Y014359D03*
X032925Y014359D03*
X033122Y014359D03*
X033318Y014359D03*
X033515Y014359D03*
X033712Y014359D03*
X033909Y014359D03*
X034106Y014359D03*
X034303Y014359D03*
X034500Y014359D03*
X034696Y014359D03*
X034893Y014359D03*
X035090Y014359D03*
X035287Y014359D03*
X035484Y014359D03*
X035681Y014359D03*
X035878Y014359D03*
X036074Y014359D03*
X036271Y014359D03*
X036468Y014359D03*
X036665Y014359D03*
X036862Y014359D03*
X037059Y014359D03*
X037255Y014359D03*
X037452Y014359D03*
X037649Y014359D03*
X037846Y014359D03*
D26*
X025971Y014370D03*
X025971Y014070D03*
X025971Y014880D03*
X025971Y015180D03*
X025971Y015660D03*
X025971Y015960D03*
D27*
X010310Y029630D03*
X010467Y030063D03*
X010310Y030496D03*
X010310Y031362D03*
X010310Y032229D03*
X010310Y032662D03*
D28*
X010192Y031796D03*
X010192Y030929D03*
D29*
X014562Y030103D03*
X014562Y032347D03*
D30*
X009267Y032977D03*
X008873Y027799D03*
D31*
X017151Y033490D03*
X031151Y033490D03*
X032551Y028490D03*
X041151Y028490D03*
X036151Y009490D03*
X040151Y004490D03*
X029151Y009490D03*
X026061Y009150D03*
X027151Y004490D03*
D32*
X026151Y004490D03*
X025151Y004490D03*
X024151Y004490D03*
X023151Y004490D03*
X022151Y004490D03*
X021151Y004490D03*
X020151Y004490D03*
X019151Y004490D03*
X018151Y004490D03*
X018151Y003490D03*
X019151Y003490D03*
X020151Y003490D03*
X021151Y003490D03*
X022151Y003490D03*
X023151Y003490D03*
X024151Y003490D03*
X025151Y003490D03*
X026151Y003490D03*
X027151Y003490D03*
X031151Y003490D03*
X032151Y003490D03*
X032151Y004490D03*
X031151Y004490D03*
X033151Y004490D03*
X033151Y003490D03*
X034151Y003490D03*
X034151Y004490D03*
X035151Y004490D03*
X035151Y003490D03*
X036151Y003490D03*
X037151Y003490D03*
X037151Y004490D03*
X036151Y004490D03*
X038151Y004490D03*
X038151Y003490D03*
X039151Y003490D03*
X039151Y004490D03*
X040151Y003490D03*
X040151Y009490D03*
X039151Y009490D03*
X038151Y009490D03*
X037151Y009490D03*
X034151Y009490D03*
X033151Y009490D03*
X032151Y009490D03*
X031151Y009490D03*
X030151Y009490D03*
X026061Y007750D03*
X041151Y009490D03*
X040151Y028490D03*
X039151Y028490D03*
X038151Y028490D03*
X037151Y028490D03*
X036151Y028490D03*
X035151Y028490D03*
X034151Y028490D03*
X031551Y028490D03*
X030551Y028490D03*
X029551Y028490D03*
X028551Y028490D03*
X027551Y028490D03*
X026551Y028490D03*
X025551Y028490D03*
X025151Y033490D03*
X024151Y033490D03*
X023151Y033490D03*
X022151Y033490D03*
X021151Y033490D03*
X020151Y033490D03*
X019151Y033490D03*
X018151Y033490D03*
X018151Y034490D03*
X017151Y034490D03*
X019151Y034490D03*
X020151Y034490D03*
X021151Y034490D03*
X022151Y034490D03*
X023151Y034490D03*
X024151Y034490D03*
X025151Y034490D03*
X026151Y034490D03*
X026151Y033490D03*
X031151Y034490D03*
X032151Y034490D03*
X033151Y034490D03*
X034151Y034490D03*
X035151Y034490D03*
X036151Y034490D03*
X037151Y034490D03*
X038151Y034490D03*
X039151Y034490D03*
X040151Y034490D03*
X040151Y033490D03*
X039151Y033490D03*
X038151Y033490D03*
X037151Y033490D03*
X036151Y033490D03*
X035151Y033490D03*
X034151Y033490D03*
X033151Y033490D03*
X032151Y033490D03*
D33*
X014001Y034940D03*
X010801Y034940D03*
X010801Y003040D03*
X014001Y003040D03*
D34*
X023249Y009716D03*
X023249Y010090D03*
X023249Y010464D03*
X024273Y010464D03*
X024273Y009716D03*
D35*
X042031Y019350D03*
X042631Y019350D03*
X042631Y020350D03*
X042031Y020350D03*
X042071Y022330D03*
X041471Y022330D03*
X041471Y023330D03*
X042071Y023330D03*
X023001Y024590D03*
X022401Y024590D03*
X022401Y025590D03*
X023001Y025590D03*
X023101Y027640D03*
X022501Y027640D03*
X022501Y028640D03*
X023101Y028640D03*
X016561Y029740D03*
X015961Y029740D03*
X015961Y030740D03*
X016561Y030740D03*
D36*
X016561Y030390D03*
X016561Y030090D03*
X015961Y030090D03*
X015961Y030390D03*
X022501Y028290D03*
X022501Y027990D03*
X023101Y027990D03*
X023101Y028290D03*
X023001Y025240D03*
X023001Y024940D03*
X022401Y024940D03*
X022401Y025240D03*
X041471Y022980D03*
X041471Y022680D03*
X042071Y022680D03*
X042071Y022980D03*
X042031Y020000D03*
X042031Y019700D03*
X042631Y019700D03*
X042631Y020000D03*
D37*
X013151Y007451D03*
X013151Y007254D03*
X013151Y007057D03*
X013151Y006860D03*
X013151Y006663D03*
X013151Y006466D03*
X013151Y006270D03*
X012442Y005108D03*
X012246Y005108D03*
X012049Y005108D03*
X011852Y005108D03*
X011655Y005108D03*
X011458Y005108D03*
X011261Y005108D03*
X010592Y006270D03*
X010592Y006466D03*
X010592Y006663D03*
X010592Y006860D03*
X010592Y007057D03*
X010592Y007254D03*
X010592Y007451D03*
D38*
X016718Y012200D03*
X016718Y012700D03*
X016718Y013200D03*
X016718Y013700D03*
X018765Y013700D03*
X018765Y013200D03*
X018765Y012700D03*
X018765Y012200D03*
D39*
X017791Y006820D03*
D40*
X017791Y008820D03*
D41*
X020203Y020940D03*
X021715Y020940D03*
X021715Y022940D03*
X020203Y022940D03*
D42*
X011117Y018760D03*
X011117Y018445D03*
X011117Y018130D03*
X011117Y017815D03*
X011117Y017500D03*
X011117Y013880D03*
X011117Y013565D03*
X011117Y013250D03*
X011117Y012935D03*
X011117Y012620D03*
D43*
X009303Y011301D03*
X009303Y015199D03*
X009303Y016181D03*
X009303Y020079D03*
D44*
X010976Y020079D03*
X010976Y016181D03*
X010976Y015199D03*
X010976Y011301D03*
D45*
X010051Y012384D03*
X010051Y014116D03*
X010051Y017264D03*
X010051Y018996D03*
D46*
X012385Y018477D03*
X012385Y018083D03*
X012897Y018083D03*
X012897Y018477D03*
X012897Y013597D03*
X012897Y013203D03*
X012385Y013203D03*
X012385Y013597D03*
D47*
X012326Y013400D03*
X012956Y013400D03*
X012956Y018280D03*
X012326Y018280D03*
D48*
X016221Y019160D03*
X016221Y019760D03*
X017221Y019760D03*
X017221Y019160D03*
D49*
X016871Y019160D03*
X016571Y019160D03*
X016571Y019760D03*
X016871Y019760D03*
D50*
X016971Y018284D03*
X016471Y018284D03*
X015971Y018284D03*
X017471Y018284D03*
X017471Y016236D03*
X016971Y016236D03*
X016471Y016236D03*
X015971Y016236D03*
D51*
X021591Y014851D03*
X021591Y012489D03*
X021431Y009201D03*
X021431Y006839D03*
D52*
X015409Y005596D03*
X015409Y003881D03*
D53*
X015798Y022088D03*
X014798Y022588D03*
X014798Y023588D03*
X015798Y024088D03*
X015798Y023088D03*
X014798Y024588D03*
X014798Y025588D03*
X015798Y025088D03*
D54*
X013361Y026905D03*
X013361Y020763D03*
D55*
X010290Y021231D03*
X010281Y022231D03*
X010290Y025436D03*
X010281Y026436D03*
D56*
X012160Y026084D03*
X012160Y021584D03*
D57*
X020101Y027390D03*
D58*
X019904Y026996D03*
X019668Y027193D03*
X019668Y027587D03*
X019904Y027823D03*
X020298Y027823D03*
X020534Y027587D03*
X020534Y027193D03*
X020298Y026996D03*
D59*
X020396Y026435D03*
X020200Y026435D03*
X020003Y026435D03*
X019806Y026435D03*
X019609Y026435D03*
X019412Y026435D03*
X020593Y026435D03*
X020790Y026435D03*
X020790Y028345D03*
X020593Y028345D03*
X020396Y028345D03*
X020200Y028345D03*
X020003Y028345D03*
X019806Y028345D03*
X019609Y028345D03*
X019412Y028345D03*
D60*
X019146Y028079D03*
X019146Y027882D03*
X019146Y027685D03*
X019146Y027488D03*
X019146Y027292D03*
X019146Y027095D03*
X019146Y026898D03*
X019146Y026701D03*
X021056Y026701D03*
X021056Y026898D03*
X021056Y027095D03*
X021056Y027292D03*
X021056Y027488D03*
X021056Y027685D03*
X021056Y027882D03*
X021056Y028079D03*
D61*
X020101Y027390D03*
M02*
