%
M48
M72
T01C0.0157
T02C0.0197
T03C0.0236
T04C0.0340
T05C0.0354
T06C0.0394
T07C0.0400
T08C0.0430
T09C0.0433
T10C0.0512
T11C0.0709
T12C0.1260
T13C0.1300
%
T01
X19668Y27587
X19668Y27193
X20534Y27587
X20534Y27193
X19904Y27823
X20298Y27823
X19904Y26996
X20298Y26996
X29031Y17300
X36161Y17260
X37761Y16140
X20761Y15700
X13411Y18280
X13391Y13400
X23361Y18980
X27281Y25180
X24721Y19330
X41471Y23660
X38121Y23380
X39121Y23380
X38121Y22980
X39121Y22980
X41031Y23240
X42441Y22980
X41031Y22420
X42961Y23460
X33041Y23620
X39361Y25220
X43281Y24300
X32881Y23980
X41031Y22020
X39641Y25500
X42841Y24260
X42081Y14540
X42881Y10780
X11881Y18280
X11881Y13400
X35601Y26420
X42840Y24896
X21581Y15980
X19161Y11780
X19161Y6260
X13441Y3340
X26541Y22870
X29721Y23420
X25041Y29340
X36651Y28040
X36241Y29540
X17001Y30620
X37651Y28040
X37121Y29380
X17201Y31020
X15521Y31780
X38651Y28000
X38041Y29220
X17921Y31340
X36281Y20180
X15401Y31220
X36681Y20180
X15521Y30460
X16041Y32820
X18701Y30590
X27881Y22580
X23221Y19790
X42641Y21220
X42641Y21780
X36561Y19460
X34151Y7220
X36961Y11900
X43041Y11900
X35721Y21380
X14931Y18600
X35321Y21340
X14931Y18160
X35881Y20780
X13421Y18880
X29241Y22540
X25721Y29060
X30161Y22420
X27041Y28860
X29081Y22940
X25321Y29060
X30961Y20620
X27521Y25780
X31361Y20620
X27921Y25780
X22041Y19140
X33631Y14830
X35081Y12820
X42081Y14140
X42081Y13740
X25081Y16540
X29391Y17140
X21751Y19640
X21431Y19320
X34281Y32740
X36521Y23940
X15241Y30180
X17521Y31340
X29161Y23460
X29161Y23860
X30321Y22780
X30881Y21740
X31201Y21500
X31201Y22220
X31561Y21960
X31761Y22300
X32121Y22060
X32481Y21900
X32801Y21660
X32711Y16220
X32431Y16500
X32151Y16220
X31871Y16500
X31591Y16220
X31311Y16510
X31031Y16220
X27601Y9740
X30901Y16880
X27441Y9380
X30551Y17500
X27121Y8660
X39011Y12700
X30561Y17900
X26961Y8300
X39611Y12700
X27321Y12140
X22231Y15900
X17841Y15820
X29601Y8940
X27161Y5380
X29961Y8740
X26881Y5100
X28961Y8900
X27721Y5940
X29201Y8540
X27441Y5660
X42081Y14940
X42081Y15340
X42081Y15740
X42081Y16140
X42081Y16540
X39281Y21380
X36161Y19420
X34751Y7220
X26321Y25310
X36921Y19620
X29441Y23140
X30881Y17280
X27281Y9020
X26881Y25230
X24561Y20020
X36241Y20580
X15971Y17660
X22761Y19800
X37401Y19860
X36121Y24060
X42081Y16940
X37041Y20020
X35961Y24420
X42081Y17340
X36681Y18900
X32761Y25700
X32361Y26100
X36281Y18860
X33551Y7220
X26101Y24980
X36361Y18420
X32951Y7220
X26331Y24650
X36201Y18060
X33361Y22550
X28881Y25620
X37721Y18500
X38161Y18860
X37681Y17940
X37981Y17660
X38261Y17940
X32761Y15320
X35401Y13540
X32361Y15320
X35241Y13180
X43441Y12300
X43041Y12300
X42641Y12300
X44081Y10860
X30561Y20620
X27841Y25180
X22801Y19260
X22361Y19660
X22361Y21660
X35641Y18060
X15001Y13620
X35281Y18220
X15001Y14020
X12551Y12860
X34961Y19020
X13471Y14740
X15361Y14700
X35121Y18580
X15081Y14420
X12241Y17780
X35521Y20940
X13431Y16600
X33681Y21660
X28321Y25700
X22221Y16460
X18161Y16460
X32321Y23860
X32161Y23500
X32921Y15680
X34681Y13660
X36281Y23620
X36881Y24100
X36481Y22540
X37121Y24420
X37481Y19420
X37561Y18860
X37921Y19580
X34321Y26860
X34721Y31940
X36841Y22380
X34721Y26740
X35121Y31940
X22521Y16180
X18161Y16060
T02
X39001Y22490
X21651Y23740
X20351Y21940
X19501Y21690
T03
X33881Y25340
X35521Y25340
X31081Y13060
X32961Y11780
X35841Y12540
X33921Y11780
X40201Y17470
X40561Y19820
X42481Y22540
X42481Y23420
X42601Y15040
X38221Y25340
X41441Y20460
X13001Y33690
X25611Y14390
X26191Y23820
X13081Y17710
X12991Y12860
X16721Y20180
X17721Y19280
X17501Y28890
X23751Y19790
X14701Y28790
X29491Y16660
X12551Y3870
X27951Y20360
X46801Y28640
X19251Y20940
X18501Y21640
X12301Y28690
X23101Y29040
X23001Y24190
X27851Y14720
X27851Y15660
X35521Y23820
X33881Y23820
X18051Y13620
X18211Y15030
X30601Y13060
X33301Y13500
X35841Y13020
X12841Y31740
X40201Y16770
X40561Y19130
X42041Y18540
X40841Y22820
X43291Y14950
X38921Y24860
X27081Y16060
X28521Y20500
X20001Y15940
X10551Y17180
X11801Y12520
X13421Y14140
X23681Y9270
X24631Y7560
X16611Y32380
X10551Y14500
X15271Y16740
X27051Y21400
X18101Y28990
X13851Y25440
X14511Y11860
X11961Y20100
X14001Y3740
X16001Y12300
X31801Y5780
X42121Y12420
X45161Y10500
X12401Y34940
X39641Y29780
X37441Y22220
X40121Y5980
X42521Y4340
X29961Y4940
X37121Y6220
X43481Y10220
X8841Y2580
X39721Y26100
X36721Y24820
X36681Y26500
X41441Y5980
X15161Y19380
X45361Y2660
X25651Y25840
X14251Y20790
X17351Y27340
X18501Y23240
X19201Y23240
X20601Y23690
X23501Y25040
X18451Y24540
X15751Y26040
X25151Y22740
X13751Y22490
X11101Y21240
X13351Y28040
X11151Y26490
X16051Y26940
X16601Y26940
X20851Y30440
X15641Y13580
X16971Y15020
X23131Y11310
X33841Y31500
X46281Y17060
X30521Y3340
X16961Y3540
X19441Y18820
X13601Y30840
X13401Y29190
X13561Y31340
X13151Y30040
X15361Y29700
X14991Y33180
X23201Y22090
X16441Y2500
X16441Y3540
X46921Y9980
X19681Y15030
X18081Y17620
X21551Y28040
X23051Y21490
X21401Y28740
X21801Y26740
X22001Y27840
X22301Y27240
X22201Y26440
X24051Y23290
X26301Y23290
X27551Y23290
X38011Y21820
X41421Y19310
X35241Y22460
X24551Y25540
X25481Y15230
X21851Y28590
X24751Y24940
X24751Y24440
X25321Y6890
X24641Y10140
X26331Y14020
X32321Y7180
X14481Y15660
X15441Y15780
X14021Y11380
X17471Y15020
X15521Y12780
X15041Y17600
X11881Y18920
X19851Y25890
X15001Y27290
X16651Y23390
X19851Y25390
X16201Y21040
X21701Y25840
X21701Y24590
X21601Y27540
X21351Y26190
X16701Y22640
X16751Y26090
X16751Y25340
X16751Y24640
X19401Y25190
X18451Y22640
X16551Y21790
T04
X26061Y10840
X26061Y11840
X26061Y9150
X26061Y7750
X16661Y10730
X15661Y10730
X15071Y7500
X14071Y7500
T05
X14798Y25588
X14798Y24588
X14798Y23588
X14798Y22588
X15798Y25088
X15798Y24088
X15798Y23088
X15798Y22088
T06
X44151Y15640
X45151Y15640
X44151Y14640
X45151Y14640
X44151Y13640
X45151Y13640
X44151Y12640
X45151Y12640
X44151Y11640
X45151Y11640
X13151Y6860
X10592Y6860
X11852Y5108
X10592Y7057
X10592Y7254
X10592Y6663
X10592Y6466
X10592Y7451
X10592Y6270
X13151Y7057
X13151Y7254
X13151Y7451
X13151Y6663
X13151Y6466
X13151Y6270
X11655Y5108
X11458Y5108
X11261Y5108
X12049Y5108
X12246Y5108
X12442Y5108
X10051Y14116
X10051Y12384
X10051Y18996
X10051Y17264
X11321Y9290
X11321Y10290
X12321Y9290
X12321Y10290
X13321Y9290
X13321Y10290
X14321Y10290
X14321Y9290
T07
X44151Y28640
X45151Y28640
X44151Y27640
X45151Y27640
X44151Y26640
X45151Y26640
X44151Y25640
X45151Y25640
X44151Y24640
X45151Y24640
X44151Y23640
X45151Y23640
X44151Y22640
X45151Y22640
X44151Y21640
X45151Y21640
X44151Y20640
X45151Y20640
X44151Y19640
X45151Y19640
X29151Y9490
X30151Y9490
X31151Y9490
X32151Y9490
X33151Y9490
X34151Y9490
X36151Y9490
X37151Y9490
X38151Y9490
X39151Y9490
X40151Y9490
X41151Y9490
X41151Y28490
X40151Y28490
X39151Y28490
X38151Y28490
X37151Y28490
X36151Y28490
X35151Y28490
X34151Y28490
X32551Y28490
X31551Y28490
X30551Y28490
X29551Y28490
X28551Y28490
X27551Y28490
X26551Y28490
X25551Y28490
X31151Y33490
X31151Y34490
X32151Y33490
X32151Y34490
X33151Y33490
X33151Y34490
X34151Y33490
X34151Y34490
X35151Y33490
X35151Y34490
X36151Y33490
X36151Y34490
X37151Y33490
X37151Y34490
X38151Y33490
X38151Y34490
X39151Y33490
X39151Y34490
X40151Y33490
X40151Y34490
X17151Y33490
X17151Y34490
X18151Y33490
X18151Y34490
X19151Y33490
X19151Y34490
X20151Y33490
X20151Y34490
X21151Y33490
X21151Y34490
X22151Y33490
X22151Y34490
X23151Y33490
X23151Y34490
X24151Y33490
X24151Y34490
X25151Y33490
X25151Y34490
X26151Y33490
X26151Y34490
X27151Y4490
X27151Y3490
X26151Y4490
X26151Y3490
X25151Y4490
X25151Y3490
X24151Y4490
X24151Y3490
X23151Y4490
X23151Y3490
X22151Y4490
X22151Y3490
X21151Y4490
X21151Y3490
X20151Y4490
X20151Y3490
X19151Y4490
X19151Y3490
X18151Y4490
X18151Y3490
X40151Y4490
X40151Y3490
X39151Y4490
X39151Y3490
X38151Y4490
X38151Y3490
X37151Y4490
X37151Y3490
X36151Y4490
X36151Y3490
X35151Y4490
X35151Y3490
X34151Y4490
X34151Y3490
X33151Y4490
X33151Y3490
X32151Y4490
X32151Y3490
X31151Y4490
X31151Y3490
X44151Y17640
X17791Y6820
X17791Y8820
T08
X9551Y10290
X9551Y9290
T09
X43191Y7680
X44191Y7680
X45191Y7680
X29151Y10490
X30151Y10490
X31151Y10490
X32151Y10490
X33151Y10490
X34151Y10490
X36151Y10490
X37151Y10490
X38151Y10490
X39151Y10490
X40151Y10490
X41151Y10490
X41151Y27490
X40151Y27490
X39151Y27490
X38151Y27490
X37151Y27490
X36151Y27490
X35151Y27490
X34151Y27490
X32151Y27490
X31151Y27490
X30151Y27490
X29151Y27490
X28151Y27490
X27151Y27490
X26151Y27490
X25151Y27490
X43191Y6680
X44191Y6680
X45191Y6680
X46191Y8680
X45191Y8680
X44191Y8680
X43191Y8680
X10290Y25436
X10281Y22231
X10281Y26436
X10290Y21231
T10
X20101Y27390
T11
X13361Y20763
X13361Y26905
T12
X12160Y26084
X12160Y21584
T13
X9701Y34540
X46471Y34540
X46471Y3440
X9701Y3440
M30
