G75*
%MOIN*%
%OFA0B0*%
%FSLAX24Y24*%
%IPPOS*%
%LPD*%
%AMOC8*
5,1,8,0,0,1.08239X$1,22.5*
%
%ADD10C,0.0100*%
%ADD11C,0.0000*%
D10*
X008401Y002140D02*
X008401Y035840D01*
X047771Y035840D01*
X047771Y002140D01*
X008401Y002140D01*
D11*
X009051Y003440D02*
X009053Y003490D01*
X009059Y003540D01*
X009069Y003590D01*
X009082Y003638D01*
X009099Y003686D01*
X009120Y003732D01*
X009144Y003776D01*
X009172Y003818D01*
X009203Y003858D01*
X009237Y003895D01*
X009274Y003930D01*
X009313Y003961D01*
X009354Y003990D01*
X009398Y004015D01*
X009444Y004037D01*
X009491Y004055D01*
X009539Y004069D01*
X009588Y004080D01*
X009638Y004087D01*
X009688Y004090D01*
X009739Y004089D01*
X009789Y004084D01*
X009839Y004075D01*
X009887Y004063D01*
X009935Y004046D01*
X009981Y004026D01*
X010026Y004003D01*
X010069Y003976D01*
X010109Y003946D01*
X010147Y003913D01*
X010182Y003877D01*
X010215Y003838D01*
X010244Y003797D01*
X010270Y003754D01*
X010293Y003709D01*
X010312Y003662D01*
X010327Y003614D01*
X010339Y003565D01*
X010347Y003515D01*
X010351Y003465D01*
X010351Y003415D01*
X010347Y003365D01*
X010339Y003315D01*
X010327Y003266D01*
X010312Y003218D01*
X010293Y003171D01*
X010270Y003126D01*
X010244Y003083D01*
X010215Y003042D01*
X010182Y003003D01*
X010147Y002967D01*
X010109Y002934D01*
X010069Y002904D01*
X010026Y002877D01*
X009981Y002854D01*
X009935Y002834D01*
X009887Y002817D01*
X009839Y002805D01*
X009789Y002796D01*
X009739Y002791D01*
X009688Y002790D01*
X009638Y002793D01*
X009588Y002800D01*
X009539Y002811D01*
X009491Y002825D01*
X009444Y002843D01*
X009398Y002865D01*
X009354Y002890D01*
X009313Y002919D01*
X009274Y002950D01*
X009237Y002985D01*
X009203Y003022D01*
X009172Y003062D01*
X009144Y003104D01*
X009120Y003148D01*
X009099Y003194D01*
X009082Y003242D01*
X009069Y003290D01*
X009059Y003340D01*
X009053Y003390D01*
X009051Y003440D01*
X009854Y012384D02*
X009856Y012411D01*
X009862Y012438D01*
X009871Y012464D01*
X009884Y012488D01*
X009900Y012511D01*
X009919Y012530D01*
X009941Y012547D01*
X009965Y012561D01*
X009990Y012571D01*
X010017Y012578D01*
X010044Y012581D01*
X010072Y012580D01*
X010099Y012575D01*
X010125Y012567D01*
X010149Y012555D01*
X010172Y012539D01*
X010193Y012521D01*
X010210Y012500D01*
X010225Y012476D01*
X010236Y012451D01*
X010244Y012425D01*
X010248Y012398D01*
X010248Y012370D01*
X010244Y012343D01*
X010236Y012317D01*
X010225Y012292D01*
X010210Y012268D01*
X010193Y012247D01*
X010172Y012229D01*
X010150Y012213D01*
X010125Y012201D01*
X010099Y012193D01*
X010072Y012188D01*
X010044Y012187D01*
X010017Y012190D01*
X009990Y012197D01*
X009965Y012207D01*
X009941Y012221D01*
X009919Y012238D01*
X009900Y012257D01*
X009884Y012280D01*
X009871Y012304D01*
X009862Y012330D01*
X009856Y012357D01*
X009854Y012384D01*
X009854Y014116D02*
X009856Y014143D01*
X009862Y014170D01*
X009871Y014196D01*
X009884Y014220D01*
X009900Y014243D01*
X009919Y014262D01*
X009941Y014279D01*
X009965Y014293D01*
X009990Y014303D01*
X010017Y014310D01*
X010044Y014313D01*
X010072Y014312D01*
X010099Y014307D01*
X010125Y014299D01*
X010149Y014287D01*
X010172Y014271D01*
X010193Y014253D01*
X010210Y014232D01*
X010225Y014208D01*
X010236Y014183D01*
X010244Y014157D01*
X010248Y014130D01*
X010248Y014102D01*
X010244Y014075D01*
X010236Y014049D01*
X010225Y014024D01*
X010210Y014000D01*
X010193Y013979D01*
X010172Y013961D01*
X010150Y013945D01*
X010125Y013933D01*
X010099Y013925D01*
X010072Y013920D01*
X010044Y013919D01*
X010017Y013922D01*
X009990Y013929D01*
X009965Y013939D01*
X009941Y013953D01*
X009919Y013970D01*
X009900Y013989D01*
X009884Y014012D01*
X009871Y014036D01*
X009862Y014062D01*
X009856Y014089D01*
X009854Y014116D01*
X009854Y017264D02*
X009856Y017291D01*
X009862Y017318D01*
X009871Y017344D01*
X009884Y017368D01*
X009900Y017391D01*
X009919Y017410D01*
X009941Y017427D01*
X009965Y017441D01*
X009990Y017451D01*
X010017Y017458D01*
X010044Y017461D01*
X010072Y017460D01*
X010099Y017455D01*
X010125Y017447D01*
X010149Y017435D01*
X010172Y017419D01*
X010193Y017401D01*
X010210Y017380D01*
X010225Y017356D01*
X010236Y017331D01*
X010244Y017305D01*
X010248Y017278D01*
X010248Y017250D01*
X010244Y017223D01*
X010236Y017197D01*
X010225Y017172D01*
X010210Y017148D01*
X010193Y017127D01*
X010172Y017109D01*
X010150Y017093D01*
X010125Y017081D01*
X010099Y017073D01*
X010072Y017068D01*
X010044Y017067D01*
X010017Y017070D01*
X009990Y017077D01*
X009965Y017087D01*
X009941Y017101D01*
X009919Y017118D01*
X009900Y017137D01*
X009884Y017160D01*
X009871Y017184D01*
X009862Y017210D01*
X009856Y017237D01*
X009854Y017264D01*
X009854Y018996D02*
X009856Y019023D01*
X009862Y019050D01*
X009871Y019076D01*
X009884Y019100D01*
X009900Y019123D01*
X009919Y019142D01*
X009941Y019159D01*
X009965Y019173D01*
X009990Y019183D01*
X010017Y019190D01*
X010044Y019193D01*
X010072Y019192D01*
X010099Y019187D01*
X010125Y019179D01*
X010149Y019167D01*
X010172Y019151D01*
X010193Y019133D01*
X010210Y019112D01*
X010225Y019088D01*
X010236Y019063D01*
X010244Y019037D01*
X010248Y019010D01*
X010248Y018982D01*
X010244Y018955D01*
X010236Y018929D01*
X010225Y018904D01*
X010210Y018880D01*
X010193Y018859D01*
X010172Y018841D01*
X010150Y018825D01*
X010125Y018813D01*
X010099Y018805D01*
X010072Y018800D01*
X010044Y018799D01*
X010017Y018802D01*
X009990Y018809D01*
X009965Y018819D01*
X009941Y018833D01*
X009919Y018850D01*
X009900Y018869D01*
X009884Y018892D01*
X009871Y018916D01*
X009862Y018942D01*
X009856Y018969D01*
X009854Y018996D01*
X011530Y021584D02*
X011532Y021634D01*
X011538Y021684D01*
X011548Y021733D01*
X011562Y021781D01*
X011579Y021828D01*
X011600Y021873D01*
X011625Y021917D01*
X011653Y021958D01*
X011685Y021997D01*
X011719Y022034D01*
X011756Y022068D01*
X011796Y022098D01*
X011838Y022125D01*
X011882Y022149D01*
X011928Y022170D01*
X011975Y022186D01*
X012023Y022199D01*
X012073Y022208D01*
X012122Y022213D01*
X012173Y022214D01*
X012223Y022211D01*
X012272Y022204D01*
X012321Y022193D01*
X012369Y022178D01*
X012415Y022160D01*
X012460Y022138D01*
X012503Y022112D01*
X012544Y022083D01*
X012583Y022051D01*
X012619Y022016D01*
X012651Y021978D01*
X012681Y021938D01*
X012708Y021895D01*
X012731Y021851D01*
X012750Y021805D01*
X012766Y021757D01*
X012778Y021708D01*
X012786Y021659D01*
X012790Y021609D01*
X012790Y021559D01*
X012786Y021509D01*
X012778Y021460D01*
X012766Y021411D01*
X012750Y021363D01*
X012731Y021317D01*
X012708Y021273D01*
X012681Y021230D01*
X012651Y021190D01*
X012619Y021152D01*
X012583Y021117D01*
X012544Y021085D01*
X012503Y021056D01*
X012460Y021030D01*
X012415Y021008D01*
X012369Y020990D01*
X012321Y020975D01*
X012272Y020964D01*
X012223Y020957D01*
X012173Y020954D01*
X012122Y020955D01*
X012073Y020960D01*
X012023Y020969D01*
X011975Y020982D01*
X011928Y020998D01*
X011882Y021019D01*
X011838Y021043D01*
X011796Y021070D01*
X011756Y021100D01*
X011719Y021134D01*
X011685Y021171D01*
X011653Y021210D01*
X011625Y021251D01*
X011600Y021295D01*
X011579Y021340D01*
X011562Y021387D01*
X011548Y021435D01*
X011538Y021484D01*
X011532Y021534D01*
X011530Y021584D01*
X011530Y026084D02*
X011532Y026134D01*
X011538Y026184D01*
X011548Y026233D01*
X011562Y026281D01*
X011579Y026328D01*
X011600Y026373D01*
X011625Y026417D01*
X011653Y026458D01*
X011685Y026497D01*
X011719Y026534D01*
X011756Y026568D01*
X011796Y026598D01*
X011838Y026625D01*
X011882Y026649D01*
X011928Y026670D01*
X011975Y026686D01*
X012023Y026699D01*
X012073Y026708D01*
X012122Y026713D01*
X012173Y026714D01*
X012223Y026711D01*
X012272Y026704D01*
X012321Y026693D01*
X012369Y026678D01*
X012415Y026660D01*
X012460Y026638D01*
X012503Y026612D01*
X012544Y026583D01*
X012583Y026551D01*
X012619Y026516D01*
X012651Y026478D01*
X012681Y026438D01*
X012708Y026395D01*
X012731Y026351D01*
X012750Y026305D01*
X012766Y026257D01*
X012778Y026208D01*
X012786Y026159D01*
X012790Y026109D01*
X012790Y026059D01*
X012786Y026009D01*
X012778Y025960D01*
X012766Y025911D01*
X012750Y025863D01*
X012731Y025817D01*
X012708Y025773D01*
X012681Y025730D01*
X012651Y025690D01*
X012619Y025652D01*
X012583Y025617D01*
X012544Y025585D01*
X012503Y025556D01*
X012460Y025530D01*
X012415Y025508D01*
X012369Y025490D01*
X012321Y025475D01*
X012272Y025464D01*
X012223Y025457D01*
X012173Y025454D01*
X012122Y025455D01*
X012073Y025460D01*
X012023Y025469D01*
X011975Y025482D01*
X011928Y025498D01*
X011882Y025519D01*
X011838Y025543D01*
X011796Y025570D01*
X011756Y025600D01*
X011719Y025634D01*
X011685Y025671D01*
X011653Y025710D01*
X011625Y025751D01*
X011600Y025795D01*
X011579Y025840D01*
X011562Y025887D01*
X011548Y025935D01*
X011538Y025984D01*
X011532Y026034D01*
X011530Y026084D01*
X009051Y034540D02*
X009053Y034590D01*
X009059Y034640D01*
X009069Y034690D01*
X009082Y034738D01*
X009099Y034786D01*
X009120Y034832D01*
X009144Y034876D01*
X009172Y034918D01*
X009203Y034958D01*
X009237Y034995D01*
X009274Y035030D01*
X009313Y035061D01*
X009354Y035090D01*
X009398Y035115D01*
X009444Y035137D01*
X009491Y035155D01*
X009539Y035169D01*
X009588Y035180D01*
X009638Y035187D01*
X009688Y035190D01*
X009739Y035189D01*
X009789Y035184D01*
X009839Y035175D01*
X009887Y035163D01*
X009935Y035146D01*
X009981Y035126D01*
X010026Y035103D01*
X010069Y035076D01*
X010109Y035046D01*
X010147Y035013D01*
X010182Y034977D01*
X010215Y034938D01*
X010244Y034897D01*
X010270Y034854D01*
X010293Y034809D01*
X010312Y034762D01*
X010327Y034714D01*
X010339Y034665D01*
X010347Y034615D01*
X010351Y034565D01*
X010351Y034515D01*
X010347Y034465D01*
X010339Y034415D01*
X010327Y034366D01*
X010312Y034318D01*
X010293Y034271D01*
X010270Y034226D01*
X010244Y034183D01*
X010215Y034142D01*
X010182Y034103D01*
X010147Y034067D01*
X010109Y034034D01*
X010069Y034004D01*
X010026Y033977D01*
X009981Y033954D01*
X009935Y033934D01*
X009887Y033917D01*
X009839Y033905D01*
X009789Y033896D01*
X009739Y033891D01*
X009688Y033890D01*
X009638Y033893D01*
X009588Y033900D01*
X009539Y033911D01*
X009491Y033925D01*
X009444Y033943D01*
X009398Y033965D01*
X009354Y033990D01*
X009313Y034019D01*
X009274Y034050D01*
X009237Y034085D01*
X009203Y034122D01*
X009172Y034162D01*
X009144Y034204D01*
X009120Y034248D01*
X009099Y034294D01*
X009082Y034342D01*
X009069Y034390D01*
X009059Y034440D01*
X009053Y034490D01*
X009051Y034540D01*
X045821Y034540D02*
X045823Y034590D01*
X045829Y034640D01*
X045839Y034690D01*
X045852Y034738D01*
X045869Y034786D01*
X045890Y034832D01*
X045914Y034876D01*
X045942Y034918D01*
X045973Y034958D01*
X046007Y034995D01*
X046044Y035030D01*
X046083Y035061D01*
X046124Y035090D01*
X046168Y035115D01*
X046214Y035137D01*
X046261Y035155D01*
X046309Y035169D01*
X046358Y035180D01*
X046408Y035187D01*
X046458Y035190D01*
X046509Y035189D01*
X046559Y035184D01*
X046609Y035175D01*
X046657Y035163D01*
X046705Y035146D01*
X046751Y035126D01*
X046796Y035103D01*
X046839Y035076D01*
X046879Y035046D01*
X046917Y035013D01*
X046952Y034977D01*
X046985Y034938D01*
X047014Y034897D01*
X047040Y034854D01*
X047063Y034809D01*
X047082Y034762D01*
X047097Y034714D01*
X047109Y034665D01*
X047117Y034615D01*
X047121Y034565D01*
X047121Y034515D01*
X047117Y034465D01*
X047109Y034415D01*
X047097Y034366D01*
X047082Y034318D01*
X047063Y034271D01*
X047040Y034226D01*
X047014Y034183D01*
X046985Y034142D01*
X046952Y034103D01*
X046917Y034067D01*
X046879Y034034D01*
X046839Y034004D01*
X046796Y033977D01*
X046751Y033954D01*
X046705Y033934D01*
X046657Y033917D01*
X046609Y033905D01*
X046559Y033896D01*
X046509Y033891D01*
X046458Y033890D01*
X046408Y033893D01*
X046358Y033900D01*
X046309Y033911D01*
X046261Y033925D01*
X046214Y033943D01*
X046168Y033965D01*
X046124Y033990D01*
X046083Y034019D01*
X046044Y034050D01*
X046007Y034085D01*
X045973Y034122D01*
X045942Y034162D01*
X045914Y034204D01*
X045890Y034248D01*
X045869Y034294D01*
X045852Y034342D01*
X045839Y034390D01*
X045829Y034440D01*
X045823Y034490D01*
X045821Y034540D01*
X045821Y003440D02*
X045823Y003490D01*
X045829Y003540D01*
X045839Y003590D01*
X045852Y003638D01*
X045869Y003686D01*
X045890Y003732D01*
X045914Y003776D01*
X045942Y003818D01*
X045973Y003858D01*
X046007Y003895D01*
X046044Y003930D01*
X046083Y003961D01*
X046124Y003990D01*
X046168Y004015D01*
X046214Y004037D01*
X046261Y004055D01*
X046309Y004069D01*
X046358Y004080D01*
X046408Y004087D01*
X046458Y004090D01*
X046509Y004089D01*
X046559Y004084D01*
X046609Y004075D01*
X046657Y004063D01*
X046705Y004046D01*
X046751Y004026D01*
X046796Y004003D01*
X046839Y003976D01*
X046879Y003946D01*
X046917Y003913D01*
X046952Y003877D01*
X046985Y003838D01*
X047014Y003797D01*
X047040Y003754D01*
X047063Y003709D01*
X047082Y003662D01*
X047097Y003614D01*
X047109Y003565D01*
X047117Y003515D01*
X047121Y003465D01*
X047121Y003415D01*
X047117Y003365D01*
X047109Y003315D01*
X047097Y003266D01*
X047082Y003218D01*
X047063Y003171D01*
X047040Y003126D01*
X047014Y003083D01*
X046985Y003042D01*
X046952Y003003D01*
X046917Y002967D01*
X046879Y002934D01*
X046839Y002904D01*
X046796Y002877D01*
X046751Y002854D01*
X046705Y002834D01*
X046657Y002817D01*
X046609Y002805D01*
X046559Y002796D01*
X046509Y002791D01*
X046458Y002790D01*
X046408Y002793D01*
X046358Y002800D01*
X046309Y002811D01*
X046261Y002825D01*
X046214Y002843D01*
X046168Y002865D01*
X046124Y002890D01*
X046083Y002919D01*
X046044Y002950D01*
X046007Y002985D01*
X045973Y003022D01*
X045942Y003062D01*
X045914Y003104D01*
X045890Y003148D01*
X045869Y003194D01*
X045852Y003242D01*
X045839Y003290D01*
X045829Y003340D01*
X045823Y003390D01*
X045821Y003440D01*
M02*
